PathFileType	4	(X/Y/Z)	8_2_99_p1_0-290.trc
DataRate	CameraRate	NumFrames	NumMarkers	Units	OrigDataRate	OrigDataStartFrame	OrigNumFrames
56.0	56.0	6	27	m	56.0	218	291
Frame#	Time	RHip			RKnee			RAnkle			RBigToe			RSmallToe			RHeel			LHip			LKnee			LAnkle			LBigToe			LSmallToe			LHeel			Neck			Head			Nose			RShoulder			RElbow			RWrist			RThumb			RIndex			RPinky			LShoulder			LElbow			LWrist			LThumb			LIndex			LPinky			
		X1	Y1	Z1	X2	Y2	Z2	X3	Y3	Z3	X4	Y4	Z4	X5	Y5	Z5	X6	Y6	Z6	X7	Y7	Z7	X8	Y8	Z8	X9	Y9	Z9	X10	Y10	Z10	X11	Y11	Z11	X12	Y12	Z12	X13	Y13	Z13	X14	Y14	Z14	X15	Y15	Z15	X16	Y16	Z16	X17	Y17	Z17	X18	Y18	Z18	X19	Y19	Z19	X20	Y20	Z20	X21	Y21	Z21	X22	Y22	Z22	X23	Y23	Z23	X24	Y24	Z24	X25	Y25	Z25	X26	Y26	Z26	X27	Y27	Z27	
218	3.892857142857143	0.2699831297087421	0.5786219324506792	0.8227616018245653	0.274467470993934	0.7241113560324465	1.3178680182465128	0.240129053675997	0.9261746058140448	1.7374015205878386	0.21371898727749863	0.7050529038323047	1.7897634001859626	0.2758531384709211	0.7569599311189699	1.7954794834817644	0.21750476038490235	0.9687967963052309	1.7702556499165112	0.048458611918248254	0.5803078278273832	0.8189579620454129	0.03687192795250417	0.7021345021815557	1.2913434469722609	0.04354663938835167	0.854843871730425	1.7075078765932123	0.041975479804123174	0.731490519505328	1.7910427769524073	-0.01026108313620305	0.7178191821707978	1.7490396979805967	0.06740595531722701	0.9534747766540135	1.7555008938820014	0.17865043163141514	0.4320018173614116	0.22955193368898616	0.19892893900380687	0.3254838598609051	-0.005815837161581997	0.15900950401827024	0.26071116927483795	0.147157961284059	0.35166832104497736	0.4740478149583322	0.3559517564233496	0.38750584957405004	0.5375700997114501	0.6466678449152671	0.287212957639886	0.4139759282949371	0.8602459249585669	0.17029554493472635	0.41674820018882497	0.9550613913652538	0.18865768514335882	0.4066983847361144	0.9690962802916481	0.23105548253292374	0.44905154059814156	0.9850327301529127	-0.004225218073700095	0.5107899470636781	0.32027518733978305	-0.05273261458755136	0.5595551080039621	0.6180066953015126	0.00209479312125793	0.4494810415021617	0.8277381172150279	0.06265484755220865	0.4029473738417837	0.9205364957364472	0.056175989331493016	0.40044831713194196	0.9776386471814571	0.03327662218190448	0.44096047313628445	0.9696691353882172
219	3.9107142857142856	0.268538970227873	0.5815945106883247	0.8270971066806108	0.2735558230621508	0.7216229227020521	1.3130352158424994	0.23577348440223894	0.9254947489185112	1.7371569412048269	0.21354900449779274	0.7047643126459957	1.7895665727099281	0.27171777970872496	0.7433824594828392	1.7901663662143663	0.21749877667857068	0.9688672423217426	1.7703940877592657	0.047764523804490616	0.5815456593145807	0.8228465264728603	0.03624943265944577	0.6993003380317798	1.2867771775923724	0.045733854615430836	0.8565241759926635	1.7076409689791485	0.04702509554585847	0.7157928335922952	1.785090421644919	-0.010256199909948359	0.7177202742735331	1.748945583702131	0.0684267410425496	0.9567002385711529	1.7615178480243097	0.178586470887595	0.4320634379709065	0.22956225741805703	0.20224779325096753	0.314719291299094	-0.0005447334181148374	0.15903702533434677	0.2606581842874732	0.14717780926427904	0.3517000433720704	0.47407749556840684	0.3559949185113609	0.3874595181601198	0.5374474923884167	0.6467246404691351	0.2833795929798297	0.40269903135356383	0.8591564912038068	0.1694514929458724	0.41469271792180457	0.950624948361602	0.18447729208312835	0.4183870175719388	0.9706759387538605	0.22760551508124094	0.4614470205525601	0.9838351559572489	-0.004192986297323396	0.5127415677240618	0.32402232461325103	-0.05007115578791909	0.5725242030963764	0.6148170919220879	0.010825083292580492	0.43835872412861765	0.8234373564481653	0.06762088372265015	0.38713530411123137	0.9111991497142056	0.06045080785970593	0.38251064571878934	0.963901201585437	0.03756896670633007	0.42609995880420876	0.9627320406656785
220	3.9285714285714284	0.26891366141866835	0.576908348720631	0.8224724991217754	0.27378628354142126	0.7214908620082175	1.3131152660656213	0.2357268511462114	0.9254030344505356	1.737017772771982	0.2134216323716775	0.7048253647719919	1.7895331950473012	0.2714632632601557	0.7432087078427954	1.7899073826941876	0.21881972077402498	0.9668890889998909	1.7646134921508572	0.04837179188487666	0.5804497243286589	0.8189869437003053	0.03629268332425241	0.6990401281128924	1.2863153829304328	0.04582510718336711	0.856314978732677	1.7074065714169382	0.04199587641887152	0.7314957560452507	1.790975983748918	-0.01017282793639799	0.7179608406931614	1.748894238598711	0.06763101743273023	0.9533000737044851	1.7555468942423167	0.17476842839531906	0.44427492498486565	0.22809942739791675	0.1989961314939248	0.3254803097126891	-0.005767258495753464	0.15905326994649585	0.26065159764029144	0.14721198953429884	0.3516813314043991	0.47405199310245033	0.35599185783268844	0.3874880944320187	0.5368058132276324	0.6469012047713958	0.28310660952232103	0.4023471300404701	0.8590888806719769	0.16188047313814438	0.4133796956172797	0.9518921934637016	0.17902974485372075	0.41888021769282585	0.973870007084985	0.22253098469114888	0.47311643784861435	0.9850225897194085	-0.004210057895191728	0.5127015332210504	0.32410739052860627	-0.05220122168895556	0.5586860722123028	0.6139514113897083	0.014818537427207092	0.4388736908481229	0.8267102414794644	0.08099270195580421	0.36271209276762845	0.9051148552833655	0.0659847562589317	0.36903558274664894	0.9588408968368632	0.04227515949138523	0.41329262638518893	0.9624631410866842
221	3.9464285714285716	0.2678491208551558	0.5785771029908523	0.8264879371193656	0.27312864752974025	0.719337125363725	1.3088389436916825	0.24009233138563582	0.9263471572777302	1.7375899931276748	0.21327309630180322	0.7038318884833528	1.7889869774710807	0.2711729363537896	0.7410415806267724	1.7892626542136083	0.21869575004641953	0.9719001326926704	1.776050002945402	0.04756393174811264	0.5816142798718403	0.8227718491402902	0.03622856070822636	0.698886791213052	1.2864524992902882	0.045816721549143735	0.8564992899316021	1.707657461833353	0.04705360182604431	0.7161384724313237	1.7852051452433422	-0.009969045288911434	0.7175744915621618	1.7487467135244514	0.07246189451003822	0.9731614471439234	1.7668021131630782	0.17859557821655891	0.4319321639203625	0.2296825723600483	0.19892941748729695	0.3275319525248119	4.6445787728483535e-06	0.15906590538374507	0.2608219825985146	0.14720151926328562	0.35165131155074386	0.47407247954562315	0.356038411183137	0.38708521321454004	0.5378065517401471	0.6501840902103249	0.27879954496374	0.4007113603929548	0.858770254785294	0.16532805811722517	0.4139331377846826	0.9550493329866635	0.18297207791356346	0.41874201635815467	0.9738111668888546	0.22296864120661455	0.47208420570937193	0.9819040411787615	-0.0040418890060440835	0.512321940463729	0.32416507169185094	-0.051966629141146324	0.5582184296603578	0.6138728969021215	0.019910063008251933	0.42651724493074916	0.8224697372690744	0.08569079351622334	0.35018208804849604	0.9068649757859342	0.06931303010191422	0.36756956796400797	0.9576172379663211	0.045693041661865504	0.4145862727065179	0.9663674942984988
222	3.9642857142857144	0.26832399385283795	0.5809783513338823	0.8306371520325605	0.2736784528327256	0.721808618519147	1.3132343121165027	0.2401041171634787	0.9264746104515672	1.737683755790768	0.21333089534584015	0.7039024489747617	1.7890368610810534	0.2712414901877074	0.7416063727304931	1.7893991680621035	0.21867774996612796	0.9721316987517502	1.7762364664684014	0.04700977824275286	0.5827568426709244	0.8265725451120821	0.03530446027911115	0.7000752217346206	1.2908893212177464	0.04581264932372765	0.8565002993817669	1.7076689208129185	0.04709098843673172	0.7157224404999741	1.7849787740563743	-0.010001019696572072	0.717539372913319	1.748761196330137	0.06867204331101445	0.9569292823154388	1.7614017864578528	0.17864798107502589	0.43175898348585573	0.22978780296596404	0.19882234229926077	0.3276211291911897	-0.00010255217835856212	0.16218478146047516	0.27120495427334984	0.14556460469430446	0.35169974592953507	0.47404060405793075	0.3560895948648	0.3870505036303152	0.5376437734545568	0.650266836432714	0.2747212308988711	0.4133696000735996	0.8598454215771103	0.15834126747501484	0.4021184102189659	0.9536762495104637	0.17449094699476814	0.41957758138796253	0.9738492049913038	0.21840877205927925	0.48670433668942364	0.9866229596895503	-0.003915355458449728	0.512252159593082	0.32414638833268167	-0.05185811665559734	0.558242434864951	0.6138596458961669	0.028871776965430473	0.41472291080578105	0.821510920120142	0.09405243205552201	0.3385127162728819	0.9055390774818988	0.08108450372823074	0.3546784840059685	0.9490684037947471	0.04280976199857854	0.41300428350057955	0.9626529490227175
223	3.982142857142857	0.26865478883179567	0.5811085427235043	0.8310531568439022	0.27400103189262126	0.721312398313429	1.313159476732462	0.24010871833925948	0.9264915529342888	1.7377116172322018	0.21000566053524528	0.6910411039962586	1.7844587141200363	0.2717374079294227	0.7427028790416895	1.7901465297409533	0.21858767123706302	0.9721189412739865	1.776067072851163	0.05112549481054394	0.5840586425888513	0.8269764433384096	0.035289116238951625	0.6998126444709196	1.2909116839907566	0.043691782121211435	0.8545926658738384	1.7075011896741932	0.052151717318639206	0.7004663703467142	1.7792896304450176	-0.009868339207732663	0.7167047072252726	1.7483022663464403	0.06721901396707432	0.9582326192072099	1.7666116673243084	0.1786383301217129	0.43169649045980435	0.22977950308414657	0.1987815257283718	0.32608655516269386	-0.0031235282681559362	0.158980810220902	0.26099318372562647	0.14719508166393994	0.35168471897991116	0.47403523764195876	0.35601823617268796	0.39001658889650476	0.5237328613166192	0.6499269118969032	0.27458340230301653	0.4131171186138086	0.859830022366515	0.15800393940580004	0.4022840783319916	0.9541381328221457	0.16933205848982918	0.4202445470999016	0.9773450112558348	0.21084709318894854	0.4729809956176221	0.9813502585268246	-0.0038915207429244284	0.5120965717575541	0.3241871237693045	-0.04906475810398613	0.5707583442964825	0.614156894406438	0.033857387846829116	0.4023883674847809	0.8206373573413793	0.10228367418414043	0.3284867019010344	0.9048290119180011	0.08523188445025483	0.34546064014132294	0.958908294045691	0.0466255672161704	0.41703100597153936	0.9720619349150955
